<?xml version="1.0" encoding="utf-8"?>
<svg xmlns="http://www.w3.org/2000/svg" viewBox="0 0 500 500" xmlns:bx="https://boxy-svg.com">
  <defs>
    <linearGradient id="color-0" bx:pinned="true" gradientUnits="userSpaceOnUse" gradientTransform="matrix(1, 0, 0, 1, 0, 0)">
      <title>tree bark</title>
      <stop style="stop-color: rgb(153, 79, 0);"/>
    </linearGradient>
    <linearGradient id="color-1" bx:pinned="true" gradientUnits="userSpaceOnUse">
      <title>logo bg</title>
      <stop style="stop-color: rgb(43, 127, 255);"/>
    </linearGradient>
  </defs>
  <rect width="500" height="500" style="fill: url(&quot;#color-1&quot;);"/>
  <rect x="200" y="155.221" width="101.288" height="75.366" style="stroke-width: 10px; fill: none; stroke: rgb(255, 255, 255);"/>
  <path style="fill: none; stroke-width: 10px; transform-box: fill-box; transform-origin: 50% 50%; stroke: rgb(255, 255, 255);" d="M 230.674 93.255 C 260.357 93.255 278.908 125.386 264.066 151.09 C 257.321 162.769 244.966 170.077 231.479 170.358" transform="matrix(0, -1, 1, 0, -0.000032, -0.000009)"/>
  <text style="fill: rgb(255, 255, 255); font-family: Arial, sans-serif; font-size: 156.9px; stroke: rgb(255, 255, 255); white-space: pre;" x="228.737" y="201.723">.</text>
  <line style="fill: rgb(216, 216, 216); stroke-width: 10px; stroke: rgb(255, 255, 255);" x1="99.49" y1="299.411" x2="99.49" y2="500"/>
  <line style="fill: rgb(216, 216, 216); stroke-width: 10px; stroke: rgb(255, 255, 255);" x1="400" y1="299.411" x2="400" y2="500"/>
  <path style="stroke-width: 10px; fill: none; stroke: rgb(255, 255, 255);" d="M 94.808 303.494 C 196.436 303.494 155.358 346.054 256.98 347.248 C 272.615 347.434 407.34 313.042 399.686 299.44 C 396.047 292.975 272.317 270.604 95.223 303.33"/>
  <path style="fill: none; stroke-width: 10px; stroke: rgb(255, 255, 255);" d="M 258.469 317.646 C 264.51 317.646 268.287 315.806 265.266 314.335 C 264.39 313.908 263.033 313.576 261.41 313.391 C 255.977 312.51 249.191 313.614 249.195 315.378 C 249.199 316.77 253.571 317.839 258.469 317.646 Z"/>
  <path style="fill: none; stroke-width: 10px; stroke: rgb(255, 255, 255);" d="M 261.247 331.141 C 291.031 331.141 309.653 318.367 294.759 308.155 C 290.44 305.191 283.749 302.886 275.747 301.602 C 248.961 295.485 215.504 303.15 215.524 315.396 C 215.544 325.06 237.099 332.481 261.247 331.141 Z"/>
  <path style="fill: none; stroke-width: 10px; stroke: rgb(255, 255, 255);" d="M 267.214 337.757 C 333.325 337.757 374.66 317.327 341.6 300.996 C 332.013 296.257 317.161 292.571 299.399 290.517 C 239.942 280.735 165.679 292.992 165.723 312.577 C 165.767 328.031 213.613 339.9 267.214 337.757 Z"/>
  <line style="stroke-width: 10px; stroke: rgb(255, 255, 255);" x1="134.966" y1="307.154" x2="134.966" y2="500"/>
  <line style="stroke-width: 10px; stroke: rgb(255, 255, 255);" x1="179.932" y1="328.077" x2="179.932" y2="500"/>
  <line style="stroke-width: 10px; stroke: rgb(255, 255, 255);" x1="224.386" y1="344.428" x2="224.386" y2="500"/>
  <line style="stroke-width: 10px; stroke: rgb(255, 255, 255);" x1="267.308" y1="344.428" x2="267.308" y2="500"/>
  <line style="stroke-width: 10px; stroke: rgb(255, 255, 255);" x1="310.741" y1="332.165" x2="310.741" y2="500"/>
  <line style="stroke-width: 10px; stroke: rgb(255, 255, 255);" x1="356.728" y1="323.99" x2="356.728" y2="500"/>
  <polyline style="stroke-width: 10px; fill: none; stroke: rgb(255, 255, 255);" points="98.434 369.847 37.474 332.875 36.823 366.604 100 393.576"/>
</svg>